<svg enable-background="new 0 0 512 512" viewBox="0 0 512 512" xmlns="http://www.w3.org/2000/svg"><path d="m478.685 44.5h-446.685c-2.485 0-4.5-2.015-4.5-4.5s2.015-4.5 4.5-4.5h446.685c2.485 0 4.5 2.015 4.5 4.5s-2.015 4.5-4.5 4.5zm4.5 44.918c0-2.485-2.015-4.5-4.5-4.5h-446.685c-2.485 0-4.5 2.015-4.5 4.5s2.015 4.5 4.5 4.5h446.685c2.485 0 4.5-2.015 4.5-4.5zm0 49.418c0-2.485-2.015-4.5-4.5-4.5h-446.685c-2.485 0-4.5 2.015-4.5 4.5s2.015 4.5 4.5 4.5h446.685c2.485 0 4.5-2.015 4.5-4.5zm0 49.418c0-2.485-2.015-4.5-4.5-4.5h-446.685c-2.485 0-4.5 2.015-4.5 4.5s2.015 4.5 4.5 4.5h446.685c2.485 0 4.5-2.015 4.5-4.5zm0 49.418c0-2.485-2.015-4.5-4.5-4.5h-446.685c-2.485 0-4.5 2.015-4.5 4.5s2.015 4.5 4.5 4.5h446.685c2.485 0 4.5-2.015 4.5-4.5zm0 49.418c0-2.485-2.015-4.5-4.5-4.5h-446.685c-2.485 0-4.5 2.015-4.5 4.5s2.015 4.5 4.5 4.5h446.685c2.485 0 4.5-2.015 4.5-4.5zm0 49.418c0-2.485-2.015-4.5-4.5-4.5h-446.685c-2.485 0-4.5 2.015-4.5 4.5s2.015 4.5 4.5 4.5h446.685c2.485 0 4.5-2.015 4.5-4.5zm0 49.418c0-2.485-2.015-4.5-4.5-4.5h-446.685c-2.485 0-4.5 2.015-4.5 4.5s2.015 4.5 4.5 4.5h446.685c2.485 0 4.5-2.015 4.5-4.5zm0 49.418c0-2.485-2.015-4.5-4.5-4.5h-446.685c-2.485 0-4.5 2.015-4.5 4.5s2.015 4.5 4.5 4.5h446.685c2.485 0 4.5-2.015 4.5-4.5z" fill="#dce2e2"/><path d="m183.96 483.418h-101.291v-346.028c0-12.364 10.023-22.387 22.387-22.387h56.517c12.364 0 22.387 10.023 22.387 22.387z" fill="#ff473e"/><path d="m318.431 483.418h-101.291v-187.231c0-12.364 10.023-22.387 22.387-22.387h56.517c12.364 0 22.387 10.023 22.387 22.387z" fill="#00b1ff"/><path d="m452.902 483.418h-101.29v-402.508c0-12.364 10.023-22.387 22.387-22.387h56.517c12.364 0 22.387 10.023 22.387 22.387v402.508z" fill="#a97dff"/><path d="m478.685 489.418h-446.685c-3.866 0-7-3.134-7-7v-442.418c0-3.866 3.134-7 7-7s7 3.134 7 7v435.418h439.685c3.866 0 7 3.134 7 7s-3.134 7-7 7z" fill="#b9c5c6"/></svg>